# xmcd
#
# Track frame offsets:
#       150
#       15784
#       32965
#       47750
#       62037
#       74644
#       90095
#       98625
#       113345
#       127652
#       142333
#       155795
#       170309
#       187375
#       199222
#       210131
#       225701
#       238162
#
# Disc length: 3345 seconds
#
# Revision: 3
# Processed by: cddbd v1.5.2PL0 Copyright (c) Steve Scherf et al.
# Submitted via: FreeDbEdit v0.1
#
DISCID=f10d0f12
DTITLE=Nat King Cole - Starportrait
DYEAR=1900
DGENRE=
TTITLE0=Unforgettable
TTITLE1=The Very Thought of You
TTITLE2=Ain't Misbehavin'
TTITLE3=On the Street Where You Live
TTITLE4=Let's Fall in Love
TTITLE5=Too Young
TTITLE6=Almost Like Being in Love
TTITLE7=For All We Know
TTITLE8=When I Fall in Love
TTITLE9=Stardust
TTITLE10=Cottage for Sale
TTITLE11=Don't Get Arround Much Anymore
TTITLE12=These Foolisch Things
TTITLE13=I'm Gonna Sit Right Down and Write Myself a Letter
TTITLE14=Those Lazy Hazy Crazy Days of Summer
TTITLE15=Mona Lisa
TTITLE16=Let There Be Love
TTITLE17=Ramblin Rose
EXTD=
EXTT0=
EXTT1=
EXTT2=
EXTT3=
EXTT4=
EXTT5=
EXTT6=
EXTT7=
EXTT8=
EXTT9=
EXTT10=
EXTT11=
EXTT12=
EXTT13=
EXTT14=
EXTT15=
EXTT16=
EXTT17=
PLAYORDER=
